<svg width="233" height="32" viewBox="0 0 233 32" fill="none" xmlns="http://www.w3.org/2000/svg">
<path d="M2.34055 15.4653C5.73368 15.1259 8.27263 11.5141 11.0591 9.86755C14.4546 7.86111 20.2435 31.5195 21.9573 30.0292C25.7041 26.7711 28.5428 22.2672 31.3694 18.2393C34.021 14.4607 33.2536 14.7118 35.4314 17.4467C39.7836 22.9123 46.1494 13.1943 49.6981 10.1152C56.8715 3.89131 57.2686 28.0595 66.0454 19.4778C67.0313 18.5138 71.1517 9.61986 71.8908 9.61986C73.1908 9.61986 74.7327 17.0542 75.5566 18.1403C79.7573 23.6776 86.9579 7.86869 89.2289 11.5023C90.7916 14.0027 91.3061 19.3271 95.421 18.0412C97.5939 17.3622 99.34 16.0091 101.019 14.524C102.328 13.3655 104.392 9.59791 105.081 11.2051C105.888 13.089 105.339 17.0301 108.152 17.5458C111.083 18.0831 113.885 12.9402 115.434 17.2981C116.042 19.009 115.539 26.5751 118.555 23.6884C122.477 19.9341 125.222 15.08 129.156 11.3537C131.973 8.68477 133.601 25.6854 138.37 24.2829C144.375 22.5165 147.29 16.1545 152.24 13.0379C154.024 11.9151 155.484 17.5951 156.996 18.2393C165.671 21.9371 172.616 -2.32989 179.387 7.93559C186.877 19.2919 199.602 -2.57764 203.511 4.2203C209.333 14.3455 215.622 5.95536 223.673 2.78372C225.939 1.89112 228.211 2.0902 230.608 2.0902" stroke="#FF0000" stroke-width="3" stroke-linecap="round"/>
</svg>

