<svg width="289" height="81" viewBox="0 0 289 81" fill="none" xmlns="http://www.w3.org/2000/svg">
<path d="M2.0842 34C9.84198 33.4459 13.6021 28.0463 20.7244 26.0113C23.7094 25.1585 28.6324 22.9324 28.1935 27.6351C27.8027 31.8219 26.945 36.1841 26.0502 40.3C24.5367 47.262 41.9824 33.4278 42.4822 43.2227C42.6221 45.9654 40.1225 55.4095 42.6121 57.4464C44.1723 58.723 46.8012 53.015 47.4183 56.2124C48.1028 59.7593 46.812 63.9823 48.1977 67.3836C50.3245 72.6041 57.8672 65.71 60.1482 64.4609C65.7642 61.3854 64.8031 74.1198 66.1235 77.2557C68.1812 82.143 78.4569 73.1652 80.542 71.6702C84.3716 68.9244 86.1402 66.6293 88.5956 71.5403C91.8301 78.0092 93.6973 78.7925 100.611 75.0475C102.438 74.058 115.327 63.3755 116.913 64.7856C120.527 67.9975 120.651 76.7334 127.37 76.2166C134.017 75.7053 141.615 57.7912 146.4 63.3567C149.594 67.0721 150.787 72.0985 156.597 69.332C160.604 67.424 163.907 64.7469 167.313 61.9279C169.071 60.4728 175.792 52.5361 179.004 52.7052C181.592 52.8414 183.143 60.8085 186.148 62.0578C191.858 64.4313 198.418 56.2842 201.541 52.6402C203.171 50.739 205.373 52.6994 207.062 53.8743C211.639 57.0585 214.57 54.9207 218.428 51.2114C221.243 48.5045 225.548 41.7971 230.313 44.2619C233.738 46.0335 233.82 48.1558 237.847 45.0413C238.892 44.2337 245.315 36.4278 246.486 37.2474C249.755 39.5361 251.156 41.9693 255.383 38.6763C259.295 35.6297 263.447 26.0864 268.503 25.167C272.276 24.481 272.696 29.8328 277.336 26.0763C284.52 20.2605 287.338 11.0545 287.338 2.43503" stroke="#FF0000" stroke-width="3" stroke-linecap="round"/>
</svg>
